<svg width="10" height="9" viewBox="0 0 40 54" fill="none" xmlns="http://www.w3.org/2000/svg">
<path d="M1.89368 46.5307C2.1182 46.5307 2.34089 46.5711 2.55112 46.6499C13.8042 50.8542 26.1959 50.8603 37.4532 46.6669C37.9229 46.4926 38.4428 46.512 38.8982 46.7209C39.3537 46.9298 39.7076 47.311 39.8819 47.7808C40.0563 48.2506 40.0369 48.7704 39.828 49.2259C39.6191 49.6814 39.2378 50.0352 38.768 50.2096C26.6621 54.7165 13.3373 54.7092 1.23625 50.1892C0.81974 50.0361 0.470489 49.7412 0.249843 49.3562C0.029197 48.9712 -0.0487297 48.5208 0.0297533 48.084C0.108236 47.6473 0.338107 47.2522 0.678987 46.9681C1.01987 46.684 1.44995 46.5291 1.89368 46.5307V46.5307ZM3.41294 43.39C3.41294 43.39 4.47233 43.7987 5.7872 44.2177C14.8685 47.1005 24.6108 47.1599 33.7266 44.3881C35.1913 43.9384 36.5879 43.4002 36.5879 43.4002C36.7848 43.3248 36.9646 43.2107 37.1166 43.0646C37.2687 42.9185 37.3899 42.7435 37.4731 42.5497C37.5563 42.356 37.5998 42.1476 37.6011 41.9368C37.6023 41.7259 37.5613 41.517 37.4804 41.3223L20.6425 0.615726C20.3019 -0.205218 19.7467 -0.205218 19.406 0.615726L2.52387 41.3053C2.44329 41.4996 2.40232 41.7081 2.40335 41.9184C2.40439 42.1288 2.44741 42.3369 2.5299 42.5304C2.61239 42.7239 2.73268 42.899 2.88373 43.0455C3.03478 43.1919 3.21354 43.3067 3.40953 43.3832L3.41294 43.39ZM32.4355 37.5855C32.4355 38.5455 32.1508 39.484 31.6175 40.2823C31.0841 41.0805 30.326 41.7027 29.439 42.0701C28.552 42.4375 27.576 42.5336 26.6344 42.3463C25.6928 42.159 24.8279 41.6967 24.149 41.0178C23.4701 40.339 23.0078 39.4741 22.8205 38.5324C22.6332 37.5908 22.7294 36.6148 23.0968 35.7279C23.4642 34.8409 24.0863 34.0828 24.8846 33.5494C25.6828 33.016 26.6213 32.7313 27.5814 32.7313C28.8688 32.7313 30.1035 33.2427 31.0138 34.1531C31.9241 35.0634 32.4355 36.2981 32.4355 37.5855ZM19.9613 13.8394C20.9213 13.8394 21.8598 14.1241 22.6581 14.6575C23.4563 15.1908 24.0785 15.949 24.4459 16.8359C24.8133 17.7229 24.9094 18.6989 24.7221 19.6405C24.5348 20.5821 24.0725 21.4471 23.3937 22.1259C22.7148 22.8048 21.8499 23.2671 20.9083 23.4544C19.9666 23.6417 18.9906 23.5456 18.1037 23.1782C17.2167 22.8108 16.4586 22.1886 15.9252 21.3903C15.3918 20.5921 15.1071 19.6536 15.1071 18.6935C15.1071 17.4061 15.6186 16.1715 16.5289 15.2611C17.4392 14.3508 18.6739 13.8394 19.9613 13.8394V13.8394ZM14.3134 27.3117C15.2735 27.3117 16.212 27.5964 17.0103 28.1298C17.8085 28.6632 18.4307 29.4213 18.7981 30.3083C19.1655 31.1952 19.2616 32.1712 19.0743 33.1129C18.887 34.0545 18.4247 34.9194 17.7458 35.5983C17.067 36.2771 16.202 36.7394 15.2604 36.9267C14.3188 37.114 13.3428 37.0179 12.4558 36.6505C11.5689 36.2831 10.8108 35.6609 10.2774 34.8627C9.744 34.0644 9.45931 33.1259 9.45931 32.1659C9.45931 30.8785 9.97072 29.6438 10.8811 28.7335C11.7914 27.8232 13.026 27.3117 14.3134 27.3117V27.3117Z" fill="white"/>
</svg>
