<svg width="100" height="120" viewBox="0 0 120 162" fill="none" xmlns="http://www.w3.org/2000/svg">
<path d="M5.68104 140.404C6.3546 140.404 7.02265 140.525 7.65335 140.761C41.4127 153.374 78.5878 153.392 112.359 140.812C113.769 140.289 115.328 140.348 116.695 140.974C118.061 141.601 119.123 142.745 119.646 144.154C120.169 145.564 120.111 147.123 119.484 148.489C118.857 149.856 117.713 150.917 116.304 151.44C79.9862 164.961 40.0119 164.939 3.70873 151.379C2.45922 150.92 1.41146 150.035 0.749526 148.88C0.0875883 147.725 -0.146192 146.374 0.0892571 145.064C0.324706 143.754 1.01432 142.568 2.03696 141.716C3.05959 140.864 4.34984 140.399 5.68104 140.404V140.404ZM10.2388 130.982C10.2388 130.982 13.417 132.208 17.3616 133.465C44.6055 142.113 73.8324 142.291 101.18 133.976C105.574 132.627 109.764 131.012 109.764 131.012C110.354 130.786 110.894 130.444 111.35 130.005C111.806 129.567 112.17 129.042 112.419 128.461C112.669 127.88 112.799 127.254 112.803 126.622C112.807 125.989 112.684 125.363 112.441 124.779L61.9276 2.65883C60.9057 0.196002 59.24 0.196002 58.2181 2.65883L7.5716 124.727C7.32986 125.31 7.20694 125.936 7.21005 126.567C7.21316 127.198 7.34223 127.822 7.5897 128.403C7.83716 128.983 8.19804 129.509 8.65118 129.948C9.10432 130.387 9.64061 130.732 10.2286 130.961L10.2388 130.982ZM97.3066 113.568C97.3066 116.448 96.4525 119.264 94.8524 121.658C93.2522 124.053 90.9779 125.92 88.317 127.022C85.656 128.124 82.728 128.412 79.9032 127.851C77.0784 127.289 74.4836 125.902 72.447 123.865C70.4104 121.829 69.0235 119.234 68.4616 116.409C67.8997 113.584 68.1881 110.656 69.2903 107.995C70.3925 105.334 72.259 103.06 74.6538 101.46C77.0485 99.8597 79.864 99.0056 82.7442 99.0056C86.6064 99.0056 90.3104 100.54 93.0413 103.271C95.7723 106.002 97.3066 109.706 97.3066 113.568ZM59.8838 42.3298C62.764 42.3298 65.5794 43.1839 67.9742 44.7841C70.369 46.3842 72.2355 48.6585 73.3377 51.3195C74.4399 53.9804 74.7283 56.9084 74.1664 59.7332C73.6045 62.558 72.2175 65.1528 70.181 67.1894C68.1444 69.226 65.5496 70.6129 62.7248 71.1748C59.8999 71.7367 56.9719 71.4483 54.311 70.3461C51.6501 69.2439 49.3757 67.3774 47.7756 64.9827C46.1755 62.5879 45.3214 59.7724 45.3214 56.8922C45.3214 53.03 46.8556 49.3261 49.5866 46.5951C52.3176 43.8641 56.0216 42.3298 59.8838 42.3298V42.3298ZM42.9403 82.7469C45.8205 82.7469 48.636 83.6009 51.0308 85.2011C53.4255 86.8012 55.292 89.0755 56.3942 91.7365C57.4964 94.3974 57.7848 97.3254 57.2229 100.15C56.661 102.975 55.2741 105.57 53.2375 107.606C51.2009 109.643 48.6061 111.03 45.7813 111.592C42.9565 112.154 40.0285 111.865 37.3675 110.763C34.7066 109.661 32.4323 107.794 30.8321 105.4C29.232 103.005 28.3779 100.189 28.3779 97.3092C28.3779 93.4471 29.9122 89.7431 32.6431 87.0121C35.3741 84.2811 39.0781 82.7469 42.9403 82.7469V82.7469Z" fill="white"/>
</svg>
