<svg width="70" height="70" viewBox="0 0 40 40" fill="none" xmlns="http://www.w3.org/2000/svg">
<path d="M33.6698 30.925C31.8948 28.065 27.9873 25 19.9998 25C12.0123 25 8.10733 28.0625 6.32983 30.925C7.96754 32.9781 10.0471 34.6355 12.4139 35.7738C14.7806 36.9122 17.3736 37.5022 19.9998 37.5C22.6261 37.5022 25.2191 36.9122 27.5858 35.7738C29.9525 34.6355 32.0321 32.9781 33.6698 30.925V30.925Z" fill="white"/>
<path fill-rule="evenodd" clip-rule="evenodd" d="M20 22.5C21.9891 22.5 23.8968 21.7098 25.3033 20.3033C26.7098 18.8968 27.5 16.9891 27.5 15C27.5 13.0109 26.7098 11.1032 25.3033 9.6967C23.8968 8.29018 21.9891 7.5 20 7.5C18.0109 7.5 16.1032 8.29018 14.6967 9.6967C13.2902 11.1032 12.5 13.0109 12.5 15C12.5 16.9891 13.2902 18.8968 14.6967 20.3033C16.1032 21.7098 18.0109 22.5 20 22.5V22.5Z" fill="white"/>
<path fill-rule="evenodd" clip-rule="evenodd" d="M20 2.5C15.3587 2.5 10.9075 4.34374 7.62563 7.62563C4.34374 10.9075 2.5 15.3587 2.5 20C2.5 24.6413 4.34374 29.0925 7.62563 32.3744C10.9075 35.6563 15.3587 37.5 20 37.5C24.6413 37.5 29.0925 35.6563 32.3744 32.3744C35.6563 29.0925 37.5 24.6413 37.5 20C37.5 15.3587 35.6563 10.9075 32.3744 7.62563C29.0925 4.34374 24.6413 2.5 20 2.5V2.5ZM0 20C0 14.6957 2.10714 9.60859 5.85786 5.85786C9.60859 2.10714 14.6957 0 20 0C25.3043 0 30.3914 2.10714 34.1421 5.85786C37.8929 9.60859 40 14.6957 40 20C40 25.3043 37.8929 30.3914 34.1421 34.1421C30.3914 37.8929 25.3043 40 20 40C14.6957 40 9.60859 37.8929 5.85786 34.1421C2.10714 30.3914 0 25.3043 0 20V20Z" fill="white"/>
</svg>
